<svg width="170" height="36" viewBox="0 0 170 36" fill="none" xmlns="http://www.w3.org/2000/svg">
<path d="M13.9118 1.27V8.928L8.77384 1.27H7.77984V11H8.96984V3.356L14.1078 11H15.1018V1.27H13.9118ZM19.8158 1.48C20.4458 1.48 20.6838 2.194 21.5518 2.194C22.4338 2.194 22.8398 1.508 22.9798 0.877999L22.1398 0.528C22.0558 0.906 21.8038 1.2 21.3978 1.2C20.7258 1.2 20.5018 0.485999 19.6618 0.485999C18.7798 0.485999 18.3598 1.186 18.2338 1.802L19.0738 2.152C19.1578 1.76 19.4098 1.48 19.8158 1.48ZM23.0778 3.622V5.05C22.5178 4.098 21.5518 3.538 20.3058 3.538C18.2198 3.538 16.6798 5.12 16.6798 7.304C16.6798 9.516 18.2058 11.154 20.3058 11.154C21.5518 11.154 22.5178 10.566 23.0778 9.586V11H24.1838V3.622H23.0778ZM20.4458 10.104C18.9618 10.104 17.8558 8.914 17.8558 7.304C17.8558 5.722 18.9618 4.518 20.4458 4.518C21.9858 4.518 23.0358 5.666 23.0358 7.304C23.0358 8.956 21.9718 10.104 20.4458 10.104ZM29.5526 11.154C31.7926 11.154 33.3886 9.516 33.3886 7.318C33.3886 5.106 31.7926 3.468 29.5526 3.468C27.3126 3.468 25.7166 5.106 25.7166 7.318C25.7166 9.516 27.3126 11.154 29.5526 11.154ZM29.5666 10.09C27.9986 10.09 26.9206 8.928 26.9206 7.318C26.9206 5.694 27.9986 4.532 29.5666 4.532C31.1346 4.532 32.1986 5.694 32.1986 7.318C32.1986 8.928 31.1206 10.09 29.5666 10.09ZM41.9651 3.468C40.7471 3.468 39.7671 4.042 39.1791 4.98V3.622H38.0731V13.506H39.2631V9.796C39.8511 10.65 40.7891 11.154 41.9371 11.154C44.0371 11.154 45.5771 9.516 45.5771 7.318C45.5771 5.12 44.0651 3.468 41.9651 3.468ZM41.8111 10.104C40.2711 10.104 39.2071 8.956 39.2071 7.318C39.2071 5.68 40.2851 4.518 41.8111 4.518C43.2951 4.518 44.3871 5.708 44.3871 7.318C44.3871 8.914 43.2811 10.104 41.8111 10.104ZM50.4979 11.154C52.7379 11.154 54.3339 9.516 54.3339 7.318C54.3339 5.106 52.7379 3.468 50.4979 3.468C48.2579 3.468 46.6619 5.106 46.6619 7.318C46.6619 9.516 48.2579 11.154 50.4979 11.154ZM50.5119 10.09C48.9439 10.09 47.8659 8.928 47.8659 7.318C47.8659 5.694 48.9439 4.532 50.5119 4.532C52.0799 4.532 53.1439 5.694 53.1439 7.318C53.1439 8.928 52.0659 10.09 50.5119 10.09ZM58.2125 11.154C59.9625 11.154 61.1245 10.342 61.1245 8.942C61.1245 6.24 56.8545 7.108 56.8545 5.456C56.8545 4.854 57.3445 4.476 58.1985 4.476C58.9405 4.476 59.4725 4.784 59.7105 5.442L60.8445 4.994C60.5225 4.014 59.5565 3.468 58.2125 3.468C56.5885 3.468 55.5385 4.252 55.5385 5.526C55.5385 8.06 59.7805 7.262 59.7805 9.04C59.7805 9.726 59.1785 10.118 58.2545 10.118C57.2325 10.118 56.5465 9.67 56.3085 8.914L55.1745 9.362C55.5665 10.538 56.6865 11.154 58.2125 11.154ZM64.8844 11.154C66.6344 11.154 67.7964 10.342 67.7964 8.942C67.7964 6.24 63.5264 7.108 63.5264 5.456C63.5264 4.854 64.0164 4.476 64.8704 4.476C65.6124 4.476 66.1444 4.784 66.3824 5.442L67.5164 4.994C67.1944 4.014 66.2284 3.468 64.8844 3.468C63.2604 3.468 62.2104 4.252 62.2104 5.526C62.2104 8.06 66.4524 7.262 66.4524 9.04C66.4524 9.726 65.8504 10.118 64.9264 10.118C63.9044 10.118 63.2184 9.67 62.9804 8.914L61.8464 9.362C62.2384 10.538 63.3584 11.154 64.8844 11.154ZM74.4403 3.622V8.256C74.4263 9.194 73.5863 10.09 72.3403 10.09C71.0803 10.104 70.2823 9.278 70.2823 8.032V3.622H69.0923V8.172C69.0923 9.922 70.1423 11.154 72.0323 11.154C73.1243 11.154 74.0063 10.636 74.4963 9.95V11H75.6303V3.622H74.4403ZM78.1865 2.264C78.7185 2.264 79.1245 1.886 79.1245 1.354C79.1245 0.807999 78.7185 0.415999 78.1865 0.415999C77.6545 0.415999 77.2485 0.807999 77.2485 1.354C77.2485 1.886 77.6545 2.264 78.1865 2.264ZM77.5985 11H78.7885V3.622H77.5985V11ZM89.1512 3.622V8.256C89.1372 9.194 88.2972 10.09 87.0512 10.09C85.7912 10.104 84.9932 9.278 84.9932 8.032V3.622H83.8032V8.172C83.8032 9.922 84.8532 11.154 86.7432 11.154C87.8352 11.154 88.7172 10.636 89.2072 9.95V11H90.3412V3.622H89.1512ZM101.003 3.468C99.6734 3.468 98.7634 4.168 98.3854 4.966C97.9794 4.014 97.1394 3.468 95.8654 3.468C94.7314 3.468 93.8774 4.028 93.4294 4.714V3.622H92.3094V11H93.4994V6.352C93.5134 5.498 94.2974 4.532 95.5294 4.532C96.7614 4.518 97.5034 5.4 97.5034 6.66V11H98.6934V6.352C98.7214 5.498 99.4914 4.532 100.737 4.532C101.969 4.518 102.711 5.414 102.711 6.66V11H103.901V6.45C103.901 4.728 102.851 3.468 101.003 3.468ZM111.74 3.622V5.05C111.18 4.098 110.214 3.538 108.968 3.538C106.882 3.538 105.342 5.12 105.342 7.304C105.342 9.516 106.868 11.154 108.968 11.154C110.214 11.154 111.18 10.566 111.74 9.586V11H112.846V3.622H111.74ZM109.108 10.104C107.624 10.104 106.518 8.914 106.518 7.304C106.518 5.722 107.624 4.518 109.108 4.518C110.648 4.518 111.698 5.666 111.698 7.304C111.698 8.956 110.634 10.104 109.108 10.104ZM121.317 11.154C123.109 11.154 124.327 10.076 124.705 8.872L123.641 8.438C123.333 9.46 122.479 10.09 121.345 10.09C119.847 10.09 118.727 8.956 118.727 7.318C118.727 5.68 119.847 4.546 121.331 4.546C122.451 4.546 123.291 5.176 123.599 6.198L124.663 5.778C124.285 4.546 123.081 3.482 121.303 3.482C119.119 3.482 117.523 5.134 117.523 7.318C117.523 9.53 119.133 11.154 121.317 11.154ZM129.398 11.154C131.638 11.154 133.234 9.516 133.234 7.318C133.234 5.106 131.638 3.468 129.398 3.468C127.158 3.468 125.562 5.106 125.562 7.318C125.562 9.516 127.158 11.154 129.398 11.154ZM129.412 10.09C127.844 10.09 126.766 8.928 126.766 7.318C126.766 5.694 127.844 4.532 129.412 4.532C130.98 4.532 132.044 5.694 132.044 7.318C132.044 8.928 130.966 10.09 129.412 10.09ZM138.442 3.468C137.266 3.468 136.37 4 135.894 4.7V3.622H134.774V11H135.964V6.436C135.978 5.442 136.874 4.532 138.134 4.532C139.45 4.518 140.248 5.33 140.248 6.702V11H141.438V6.492C141.438 4.658 140.332 3.468 138.442 3.468ZM146.164 11H147.242V9.95H146.374C145.422 9.95 144.904 9.39 144.904 8.396V4.644H147.13V3.622H144.946V1.732H143.798V2.95C143.798 3.398 143.588 3.622 143.14 3.622H142.37V4.644H143.714V8.522C143.714 10.048 144.568 11 146.164 11ZM154.109 3.622V5.05C153.549 4.098 152.583 3.538 151.337 3.538C149.251 3.538 147.711 5.12 147.711 7.304C147.711 9.516 149.237 11.154 151.337 11.154C152.583 11.154 153.549 10.566 154.109 9.586V11H155.215V3.622H154.109ZM151.477 10.104C149.993 10.104 148.887 8.914 148.887 7.304C148.887 5.722 149.993 4.518 151.477 4.518C153.017 4.518 154.067 5.666 154.067 7.304C154.067 8.956 153.003 10.104 151.477 10.104ZM158.207 8.088H159.257V7.528C159.257 5.554 161.889 5.372 161.889 3.034C161.889 1.536 160.909 0.625999 159.299 0.625999C157.815 0.625999 156.695 1.508 156.429 2.838L157.563 3.202C157.717 2.376 158.361 1.774 159.229 1.774C160.097 1.774 160.657 2.264 160.657 3.16C160.657 4.91 158.207 5.106 158.207 7.486V8.088ZM158.753 11.126C159.215 11.126 159.565 10.79 159.565 10.328C159.565 9.866 159.229 9.516 158.753 9.516C158.291 9.516 157.955 9.852 157.955 10.328C157.955 10.79 158.291 11.126 158.753 11.126Z" fill="#4D4C4D"/>
<path d="M6.48314 24.076V22.27H0.0151407V32H2.10114V28.038H5.96514V26.232H2.10114V24.076H6.48314ZM12.8986 24.622V25.518C12.3666 24.916 11.5966 24.58 10.6306 24.58C8.50264 24.58 6.96264 26.106 6.96264 28.318C6.96264 30.516 8.50264 32.182 10.6306 32.182C11.5966 32.182 12.3666 31.818 12.8986 31.188V32H14.8166V24.622H12.8986ZM10.9246 30.348C9.81864 30.348 9.02064 29.494 9.02064 28.318C9.02064 27.142 9.81864 26.274 10.9246 26.274C12.0586 26.274 12.8286 27.114 12.8286 28.318C12.8286 29.522 12.0586 30.348 10.9246 30.348ZM23.4347 29.788L21.5867 29.046C21.3767 29.802 20.7607 30.334 19.8787 30.334C18.8427 30.334 18.0307 29.55 18.0307 28.318C18.0307 27.086 18.8427 26.302 19.8787 26.302C20.7467 26.302 21.3347 26.834 21.5447 27.604L23.3927 26.876C23.0707 25.77 21.8387 24.454 19.8367 24.454C17.5967 24.454 15.9447 26.148 15.9447 28.332C15.9447 30.348 17.3727 31.93 19.3467 32.154L19.0107 33.05L19.1227 33.148H19.3467C19.7667 33.148 20.0047 33.414 20.0047 33.722C20.0047 34.016 19.7667 34.254 19.3747 34.254C19.0107 34.254 18.7727 34.086 18.6187 33.876L17.9327 34.716C18.2547 35.094 18.8707 35.388 19.6547 35.388C20.7467 35.388 21.4887 34.786 21.4887 33.904C21.4887 33.204 21.0267 32.672 20.4107 32.602L20.5927 32.112C22.1887 31.846 23.1547 30.726 23.4347 29.788ZM29.9611 24.622V25.518C29.4291 24.916 28.6591 24.58 27.6931 24.58C25.5651 24.58 24.0251 26.106 24.0251 28.318C24.0251 30.516 25.5651 32.182 27.6931 32.182C28.6591 32.182 29.4291 31.818 29.9611 31.188V32H31.8791V24.622H29.9611ZM27.9871 30.348C26.8811 30.348 26.0831 29.494 26.0831 28.318C26.0831 27.142 26.8811 26.274 27.9871 26.274C29.1211 26.274 29.8911 27.114 29.8911 28.318C29.8911 29.522 29.1211 30.348 27.9871 30.348ZM38.8353 32.182C40.7253 32.182 41.9433 31.272 41.9433 29.788C41.9433 27.072 37.9953 27.786 37.9953 26.596C37.9953 26.218 38.3033 25.994 38.8633 25.994C39.4093 25.994 39.8013 26.246 39.9833 26.75L41.7333 26.078C41.4253 25.056 40.3613 24.454 38.8913 24.454C37.0993 24.454 35.9513 25.308 35.9513 26.708C35.9513 29.242 39.8853 28.626 39.8853 29.914C39.8853 30.334 39.5213 30.586 38.9053 30.586C38.0793 30.586 37.5473 30.208 37.3513 29.564L35.6013 30.236C36.0213 31.51 37.1973 32.182 38.8353 32.182ZM44.6889 28.948H50.2189C50.2469 28.766 50.2609 28.486 50.2609 28.164C50.2609 26.316 48.8469 24.454 46.4669 24.454C44.3529 24.454 42.6589 26.176 42.6589 28.318C42.6589 30.516 44.2129 32.182 46.6069 32.182C48.4129 32.182 49.3649 31.44 49.9389 30.6L48.3569 29.55C48.0349 30.138 47.5729 30.46 46.6629 30.46C45.6829 30.46 44.9269 29.914 44.6889 28.948ZM44.6609 27.59C44.8709 26.582 45.5709 26.022 46.5229 26.022C47.4749 26.022 48.1189 26.624 48.3149 27.59H44.6609ZM56.1654 24.622V28.99C56.1654 29.76 55.6054 30.334 54.7514 30.334C53.8834 30.334 53.3514 29.76 53.3514 28.948V24.622H51.2794V29.214C51.2794 30.894 52.2594 32.182 54.1354 32.182C55.0174 32.182 55.7734 31.832 56.2914 31.3V32H58.2374V24.622H56.1654ZM66.0067 32.182C68.0507 32.182 69.2827 30.866 69.6047 29.788L67.7567 29.046C67.5467 29.802 66.9307 30.334 66.0487 30.334C65.0127 30.334 64.2007 29.55 64.2007 28.318C64.2007 27.086 65.0127 26.302 66.0487 26.302C66.9167 26.302 67.5047 26.834 67.7147 27.604L69.5627 26.876C69.2407 25.77 68.0087 24.454 66.0067 24.454C63.7667 24.454 62.1147 26.148 62.1147 28.332C62.1147 30.516 63.7947 32.182 66.0067 32.182ZM76.1311 24.622V25.518C75.5991 24.916 74.8291 24.58 73.8631 24.58C71.7351 24.58 70.1951 26.106 70.1951 28.318C70.1951 30.516 71.7351 32.182 73.8631 32.182C74.8291 32.182 75.5991 31.818 76.1311 31.188V32H78.0491V24.622H76.1311ZM74.1571 30.348C73.0511 30.348 72.2531 29.494 72.2531 28.318C72.2531 27.142 73.0511 26.274 74.1571 26.274C75.2911 26.274 76.0611 27.114 76.0611 28.318C76.0611 29.522 75.2911 30.348 74.1571 30.348ZM84.9732 21.766V25.266C84.4272 24.748 83.6852 24.454 82.8032 24.454C80.6892 24.454 79.1912 26.106 79.1912 28.318C79.1912 30.516 80.7312 32.182 82.8592 32.182C83.8112 32.182 84.5812 31.832 85.1272 31.244V32H87.0452V21.766H84.9732ZM83.1532 30.348C82.0472 30.348 81.2492 29.494 81.2492 28.318C81.2492 27.142 82.0472 26.274 83.1532 26.274C84.2872 26.274 85.0572 27.114 85.0572 28.318C85.0572 29.522 84.2872 30.348 83.1532 30.348ZM94.1233 24.622V25.518C93.5913 24.916 92.8213 24.58 91.8553 24.58C89.7273 24.58 88.1873 26.106 88.1873 28.318C88.1873 30.516 89.7273 32.182 91.8553 32.182C92.8213 32.182 93.5913 31.818 94.1233 31.188V32H96.0413V24.622H94.1233ZM92.1493 30.348C91.0433 30.348 90.2453 29.494 90.2453 28.318C90.2453 27.142 91.0433 26.274 92.1493 26.274C93.2833 26.274 94.0533 27.114 94.0533 28.318C94.0533 29.522 93.2833 30.348 92.1493 30.348ZM100.249 32.182C102.139 32.182 103.357 31.272 103.357 29.788C103.357 27.072 99.4093 27.786 99.4093 26.596C99.4093 26.218 99.7173 25.994 100.277 25.994C100.823 25.994 101.215 26.246 101.397 26.75L103.147 26.078C102.839 25.056 101.775 24.454 100.305 24.454C98.5133 24.454 97.3653 25.308 97.3653 26.708C97.3653 29.242 101.299 28.626 101.299 29.914C101.299 30.334 100.935 30.586 100.319 30.586C99.4933 30.586 98.9613 30.208 98.7653 29.564L97.0153 30.236C97.4353 31.51 98.6113 32.182 100.249 32.182ZM107.758 32H108.976V30.194H108.192C107.464 30.194 107.058 29.774 107.058 28.99V26.386H108.92V24.622H107.128V22.676H105.112V23.824C105.112 24.356 104.86 24.622 104.356 24.622H103.726V26.386H104.986V29.242C104.986 30.908 105.924 32 107.758 32ZM111.921 25.336V24.622H109.961V32H112.033V27.94C112.033 26.96 112.775 26.386 114.035 26.386V24.44C113.167 24.44 112.425 24.804 111.921 25.336ZM118.4 32.182C120.724 32.182 122.39 30.516 122.39 28.318C122.39 26.106 120.724 24.454 118.4 24.454C116.062 24.454 114.41 26.106 114.41 28.318C114.41 30.516 116.062 32.182 118.4 32.182ZM118.414 30.334C117.266 30.334 116.496 29.494 116.496 28.318C116.496 27.128 117.266 26.302 118.414 26.302C119.562 26.302 120.318 27.128 120.318 28.304C120.318 29.494 119.534 30.334 118.414 30.334ZM131.871 24.622V25.518C131.339 24.916 130.569 24.58 129.603 24.58C127.475 24.58 125.935 26.106 125.935 28.318C125.935 30.516 127.475 32.182 129.603 32.182C130.569 32.182 131.339 31.818 131.871 31.188V32H133.789V24.622H131.871ZM129.897 30.348C128.791 30.348 127.993 29.494 127.993 28.318C127.993 27.142 128.791 26.274 129.897 26.274C131.031 26.274 131.801 27.114 131.801 28.318C131.801 29.522 131.031 30.348 129.897 30.348ZM140.867 24.622V25.434C140.335 24.818 139.565 24.454 138.585 24.454C136.471 24.454 134.931 26.106 134.931 28.122C134.931 30.138 136.457 31.748 138.585 31.748C139.565 31.748 140.335 31.384 140.867 30.768V31.076C140.867 32.21 140.083 32.952 138.753 32.952C137.829 32.952 137.101 32.602 136.793 31.832L135.029 32.518C135.519 33.806 136.681 34.688 138.739 34.688C141.301 34.688 142.785 33.134 142.785 30.88V24.622H140.867ZM138.851 30.166C137.787 30.166 136.989 29.312 136.989 28.22C136.989 27.128 137.787 26.274 138.865 26.274C139.971 26.274 140.741 27.1 140.741 28.22C140.741 29.326 139.971 30.166 138.851 30.166ZM147.89 32.182C150.214 32.182 151.88 30.516 151.88 28.318C151.88 26.106 150.214 24.454 147.89 24.454C145.552 24.454 143.9 26.106 143.9 28.318C143.9 30.516 145.552 32.182 147.89 32.182ZM147.904 30.334C146.756 30.334 145.986 29.494 145.986 28.318C145.986 27.128 146.756 26.302 147.904 26.302C149.052 26.302 149.808 27.128 149.808 28.304C149.808 29.494 149.024 30.334 147.904 30.334ZM154.973 25.336V24.622H153.013V32H155.085V27.94C155.085 26.96 155.827 26.386 157.087 26.386V24.44C156.219 24.44 155.477 24.804 154.973 25.336ZM163.412 24.622V25.518C162.88 24.916 162.11 24.58 161.144 24.58C159.016 24.58 157.476 26.106 157.476 28.318C157.476 30.516 159.016 32.182 161.144 32.182C162.11 32.182 162.88 31.818 163.412 31.188V32H165.33V24.622H163.412ZM161.438 30.348C160.332 30.348 159.534 29.494 159.534 28.318C159.534 27.142 160.332 26.274 161.438 26.274C162.572 26.274 163.342 27.114 163.342 28.318C163.342 29.522 162.572 30.348 161.438 30.348ZM167.144 28.612H168.782L169.16 21.766H166.794L167.144 28.612ZM167.97 32.14C168.642 32.14 169.146 31.636 169.146 30.992C169.146 30.306 168.642 29.802 167.97 29.802C167.312 29.802 166.822 30.306 166.822 30.992C166.822 31.636 167.312 32.14 167.97 32.14Z" fill="#5E49FF"/>
<path d="M-0.880859 33.4H169.874V34.1H-0.880859V33.4Z" fill="#5E49FF"/>
</svg>
